<svg xmlns="http://www.w3.org/2000/svg" viewBox="0 0 32 32" fill="none">
  <defs>
    <linearGradient id="grad1" x1="0%" y1="0%" x2="100%" y2="100%">
      <stop offset="0%" style="stop-color:#3B82F6;stop-opacity:1" />
      <stop offset="100%" style="stop-color:#8B5CF6;stop-opacity:1" />
    </linearGradient>
    <filter id="glow">
      <feGaussianBlur stdDeviation="1.5" result="coloredBlur"/>
      <feMerge>
        <feMergeNode in="coloredBlur"/>
        <feMergeNode in="SourceGraphic"/>
      </feMerge>
    </filter>
  </defs>
  <path d="M16 4C9.37 4 4 9.37 4 16C4 22.63 9.37 28 16 28C22.63 28 28 22.63 28 16C28 9.37 22.63 4 16 4ZM16 26C10.48 26 6 21.52 6 16C6 10.48 10.48 6 16 6C21.52 6 26 10.48 26 16C26 21.52 21.52 26 16 26Z" fill="url(#grad1)" filter="url(#glow)" opacity="0.3"/>
  <circle cx="16" cy="16" r="6" stroke="url(#grad1)" stroke-width="2" filter="url(#glow)" />
  <circle cx="16" cy="16" r="2" fill="#fff" filter="url(#glow)" />
  <line x1="16" y1="10" x2="16" y2="4" stroke="url(#grad1)" stroke-width="1.5" stroke-linecap="round" />
  <line x1="16" y1="28" x2="16" y2="22" stroke="url(#grad1)" stroke-width="1.5" stroke-linecap="round" />
  <line x1="10" y1="16" x2="4" y2="16" stroke="url(#grad1)" stroke-width="1.5" stroke-linecap="round" />
  <line x1="28" y1="16" x2="22" y2="16" stroke="url(#grad1)" stroke-width="1.5" stroke-linecap="round" />
  <circle cx="16" cy="4" r="1.5" fill="#fff" />
  <circle cx="4" cy="16" r="1.5" fill="#fff" />
  <circle cx="28" cy="16" r="1.5" fill="#fff" />
</svg>
